{"glyphs":{":":{"x_min":0,"x_max":300,"ha":300,"o":"m 83 438 q 83 450 88 461 q 93 473 102 481 q 110 490 123 495 q 135 500 150 500 q 165 500 177 495 q 189 490 198 481 q 207 473 212 461 q 216 450 216 438 q 216 425 212 414 q 207 402 198 394 q 189 385 177 380 q 165 375 150 375 q 135 375 123 380 q 110 385 102 394 q 93 402 88 414 q 83 425 83 438 z m 83 62 q 83 74 88 85 q 93 96 102 105 q 110 114 123 119 q 135 124 150 124 q 165 124 177 119 q 189 114 198 105 q 207 96 212 85 q 216 74 216 62 q 216 49 212 38 q 207 26 198 18 q 189 9 177 4 q 165 -1 150 -1 q 135 -1 123 4 q 110 9 102 18 q 93 26 88 38 q 83 49 83 62 z"},"$":{"x_min":0,"x_max":644,"ha":644,"o":"m 274 -20 q 248 -19 222 -15 q 196 -11 172 -5 q 148 0 127 6 q 106 13 89 19 q 71 26 62 39 q 54 52 54 65 q 54 74 57 83 q 60 91 66 98 q 71 104 79 108 q 87 112 97 112 q 104 112 113 109 q 132 103 151 97 q 171 91 193 86 q 215 82 242 79 q 268 76 300 76 q 329 76 355 82 q 381 88 402 101 q 422 113 435 132 q 447 151 447 176 q 447 200 437 217 q 426 234 408 247 q 391 260 366 270 q 342 280 314 289 q 286 297 256 306 q 226 314 196 324 q 162 336 133 352 q 105 368 85 389 q 64 411 53 440 q 42 469 42 506 q 42 548 59 582 q 77 616 108 641 q 139 666 181 681 q 224 696 274 700 l 274 738 q 274 752 283 760 q 292 768 304 768 q 315 768 324 760 q 333 753 333 738 l 333 700 q 354 699 376 697 q 398 695 420 691 q 442 688 463 682 q 483 677 501 670 q 520 663 529 650 q 538 637 538 623 q 538 605 526 593 q 515 580 494 580 q 490 579 486 580 q 482 581 477 582 q 461 586 440 590 q 419 595 397 598 q 375 602 352 604 q 330 606 310 606 q 285 606 260 601 q 235 596 215 585 q 195 575 182 558 q 169 542 169 519 q 169 498 177 482 q 185 466 199 454 q 212 441 230 432 q 249 423 269 416 q 302 404 338 394 q 374 384 408 372 q 442 360 473 345 q 503 330 527 309 q 550 287 563 258 q 577 229 577 189 q 577 144 559 107 q 540 70 508 43 q 475 17 430 1 q 386 -15 333 -19 l 333 -64 q 333 -79 323 -86 q 314 -94 303 -94 q 292 -94 283 -87 q 274 -80 274 -64 z"},"?":{"x_min":0,"x_max":511,"ha":511,"o":"m 101 625 q 96 624 92 624 q 83 624 76 628 q 68 632 63 638 q 58 645 55 654 q 52 662 52 671 q 52 687 62 701 q 71 715 92 721 q 129 730 166 734 q 204 738 239 738 q 282 738 321 727 q 360 716 389 694 q 418 671 436 636 q 453 601 453 554 q 453 523 445 499 q 437 474 423 453 q 410 432 392 413 q 374 395 354 376 q 331 354 314 339 q 297 324 286 312 q 274 301 268 290 q 261 278 260 263 l 260 264 l 260 257 q 260 253 260 245 q 261 237 261 224 q 261 213 256 204 q 252 196 244 190 q 237 185 227 182 q 218 179 208 179 q 197 179 188 182 q 178 185 170 190 q 163 196 158 205 q 153 214 153 226 l 153 282 q 154 308 167 330 q 180 351 199 371 q 217 391 239 409 q 261 428 279 448 q 297 468 310 490 q 322 513 322 540 q 322 568 312 587 q 303 605 288 617 q 272 628 252 633 q 232 638 210 638 q 203 638 190 637 q 178 636 163 635 q 148 633 132 631 q 116 628 101 625 z m 142 47 q 142 60 146 71 q 151 82 160 91 q 168 99 181 104 q 193 109 208 109 q 223 109 236 104 q 248 99 257 91 q 266 82 270 71 q 275 60 275 47 q 275 35 270 23 q 266 12 257 3 q 248 -6 236 -11 q 223 -16 208 -16 q 193 -16 181 -11 q 168 -6 160 3 q 151 12 146 23 q 142 35 142 47 z"},"<":{"x_min":0,"x_max":642,"ha":642,"o":"m 94 198 q 76 206 67 219 q 59 231 59 244 q 59 258 67 271 q 76 284 95 292 l 517 469 q 524 471 532 471 q 541 471 548 468 q 555 464 560 459 q 565 453 568 446 q 571 439 571 432 q 571 421 565 413 q 560 404 547 398 l 175 244 l 548 83 q 561 77 566 68 q 572 60 571 49 q 571 35 561 22 q 551 10 534 10 q 530 10 526 11 q 522 12 518 14 z"},"'":{"x_min":0,"x_max":300,"ha":300,"o":"m 101 677 q 101 678 100 679 q 100 681 100 682 q 100 691 104 699 q 109 707 116 712 q 123 717 132 719 q 141 722 150 722 q 159 722 168 719 q 177 717 184 712 q 190 707 195 699 q 199 692 199 682 l 199 677 l 184 509 q 182 489 172 479 q 161 470 149 470 q 138 470 128 479 q 118 489 116 509 z"},"=":{"x_min":0,"x_max":642,"ha":642,"o":"m 112 103 q 103 103 95 106 q 88 109 82 114 q 77 120 73 127 q 70 134 70 143 q 70 160 82 172 q 94 184 112 184 l 530 184 q 547 184 560 172 q 572 160 572 143 q 572 134 569 127 q 565 120 560 114 q 554 109 547 106 q 539 103 530 103 z m 112 306 q 103 306 95 309 q 88 312 82 318 q 77 323 73 331 q 70 338 70 346 q 70 363 82 375 q 94 387 112 387 l 530 387 q 547 387 560 375 q 572 363 572 346 q 572 338 569 331 q 565 323 560 318 q 554 312 547 309 q 539 306 530 306 z"},"a":{"x_min":0,"x_max":527,"ha":527,"o":"m 354 325 q 354 350 347 367 q 340 383 328 394 q 315 404 297 408 q 279 413 258 413 q 233 413 213 410 q 193 407 176 402 q 159 397 144 391 q 128 385 114 378 q 106 375 99 375 q 92 375 86 378 q 80 381 75 385 q 71 390 68 396 q 65 402 65 409 q 65 414 67 418 q 69 422 72 428 q 96 463 145 479 q 194 495 264 495 q 307 495 343 485 q 379 475 406 454 q 432 433 447 399 q 462 365 462 316 l 462 50 q 461 38 457 28 q 452 19 445 13 q 437 6 427 3 q 418 0 408 0 q 399 0 390 3 q 381 6 374 12 q 367 18 362 26 q 358 35 357 47 l 357 83 q 347 66 330 48 q 313 30 292 18 q 270 6 246 0 q 221 -6 196 -6 q 161 -6 131 4 q 100 14 78 32 q 56 51 43 78 q 30 105 30 134 q 30 179 50 211 q 69 242 105 262 q 141 282 191 291 q 242 299 305 299 q 315 299 329 299 q 344 299 354 298 z m 354 234 q 350 234 344 234 q 339 234 333 234 q 327 234 321 234 q 314 234 310 234 q 279 234 248 230 q 217 227 193 217 q 168 207 153 189 q 137 170 137 141 q 137 126 145 111 q 152 95 164 85 q 177 75 194 70 q 211 64 230 64 q 256 64 279 73 q 301 82 317 99 q 334 117 344 139 q 353 162 354 195 z"},"L":{"x_min":0,"x_max":572,"ha":572,"o":"m 151 0 q 138 0 126 5 q 114 10 105 19 q 96 28 91 40 q 85 51 85 65 l 85 638 q 85 654 91 666 q 97 678 106 686 q 115 693 127 697 q 139 701 151 701 q 164 701 175 697 q 187 693 196 686 q 206 678 211 666 q 217 654 217 638 l 217 99 l 499 99 q 511 99 521 94 q 530 90 536 83 q 542 76 545 67 q 548 59 548 49 q 548 40 545 31 q 542 22 536 15 q 530 8 521 4 q 511 0 499 0 z"},"3":{"x_min":0,"x_max":601,"ha":601,"o":"m 266 406 q 295 407 320 413 q 345 420 364 434 q 382 447 393 468 q 404 488 404 515 q 404 541 394 560 q 383 579 366 592 q 349 604 326 611 q 304 617 279 617 q 255 617 231 613 q 207 608 186 603 q 165 598 150 594 q 134 590 128 590 q 118 590 109 594 q 101 598 95 604 q 89 611 86 619 q 83 628 83 637 q 83 651 92 665 q 101 678 121 685 q 156 700 198 708 q 239 717 284 717 q 339 717 384 704 q 430 691 462 667 q 495 643 513 607 q 531 571 531 525 q 531 495 521 469 q 510 442 493 422 q 475 402 451 388 q 428 375 401 369 l 401 367 q 435 361 461 346 q 488 331 506 308 q 525 285 535 256 q 544 227 544 193 q 544 141 524 103 q 503 66 469 42 q 434 18 388 7 q 342 -4 292 -4 q 271 -4 249 -2 q 227 1 204 6 q 182 12 160 19 q 138 26 119 36 q 102 43 94 55 q 87 67 87 80 q 87 88 90 97 q 93 105 99 111 q 105 118 114 122 q 123 125 134 125 q 136 125 139 125 q 142 125 145 125 q 156 120 171 115 q 187 110 205 105 q 223 101 243 97 q 264 94 286 94 q 314 94 338 101 q 362 107 379 120 q 396 133 405 153 q 414 172 414 198 q 414 227 403 249 q 393 272 373 288 q 354 303 327 311 q 301 319 270 319 l 234 319 q 223 319 215 323 q 208 327 202 333 q 197 339 195 346 q 192 354 192 362 q 192 379 202 392 q 213 405 234 406 z"},";":{"x_min":0,"x_max":300,"ha":300,"o":"m 98 446 q 98 458 103 469 q 107 480 116 489 q 125 498 137 503 q 150 508 165 508 q 180 508 192 503 q 205 498 213 489 q 222 480 227 469 q 231 458 231 446 q 231 433 227 422 q 222 410 213 402 q 205 393 192 388 q 180 383 165 383 q 150 383 137 388 q 125 393 116 402 q 107 410 103 422 q 98 433 98 446 z m 156 -113 l 58 -113 l 108 116 l 235 116 z"},"J":{"x_min":0,"x_max":550,"ha":550,"o":"m 343 640 q 343 655 349 667 q 354 679 364 687 q 373 694 385 698 q 397 702 409 702 q 421 702 433 698 q 445 694 454 687 q 463 679 469 667 q 475 655 475 640 l 475 216 q 475 154 456 110 q 437 66 405 38 q 373 10 330 -2 q 288 -15 240 -15 q 210 -15 181 -8 q 152 -1 127 13 q 101 27 80 48 q 60 69 46 97 q 33 114 33 131 q 33 142 37 150 q 42 159 49 165 q 56 171 64 175 q 73 178 83 178 q 91 178 99 175 q 107 171 113 164 q 131 126 161 103 q 190 81 232 81 q 287 81 315 115 q 343 150 343 225 z"},"V":{"x_min":0,"x_max":667,"ha":667,"o":"m 332 102 l 334 102 l 518 657 q 524 678 541 690 q 557 702 577 702 q 589 702 600 697 q 610 693 619 686 q 627 678 632 668 q 637 658 637 646 q 636 642 636 637 q 635 633 634 628 l 441 84 q 434 61 424 45 q 413 28 399 19 q 385 9 368 4 q 351 0 331 0 q 311 0 294 4 q 277 8 264 18 q 250 27 240 44 q 229 60 221 84 l 27 625 q 24 634 24 644 q 24 656 29 667 q 34 677 43 685 q 52 693 63 698 q 75 702 87 702 q 107 702 123 691 q 139 679 145 659 z"},"\"":{"x_min":0,"x_max":372,"ha":372,"o":"m 213 677 q 213 678 213 679 q 212 681 212 682 q 212 691 217 699 q 221 707 228 712 q 235 717 244 719 q 253 722 262 722 q 271 722 280 719 q 289 717 295 712 q 302 707 306 699 q 311 692 311 682 l 311 677 l 296 509 q 294 489 284 479 q 273 470 261 470 q 250 470 240 479 q 229 489 228 509 z m 58 677 q 58 678 58 679 q 58 681 58 682 q 58 691 62 699 q 66 707 73 712 q 81 717 89 719 q 98 722 107 722 q 117 722 125 719 q 134 717 141 712 q 148 707 152 699 q 156 692 156 682 l 156 677 l 141 509 q 139 489 129 479 q 119 470 107 470 q 95 470 85 479 q 75 489 73 509 z"},"7":{"x_min":0,"x_max":601,"ha":601,"o":"m 288 36 q 279 17 263 9 q 248 0 232 0 q 220 0 208 4 q 196 9 187 16 q 178 24 172 35 q 167 45 167 59 q 167 72 174 87 l 406 585 l 97 585 q 85 585 76 589 q 67 593 61 600 q 55 607 52 615 q 49 624 49 633 q 49 642 52 651 q 55 660 61 667 q 67 673 76 677 q 85 682 97 682 l 473 682 q 508 682 525 666 q 542 649 542 624 q 542 612 538 599 q 535 586 528 572 z"},"S":{"x_min":0,"x_max":644,"ha":644,"o":"m 190 526 q 190 497 206 477 q 222 458 249 444 q 275 430 309 419 q 343 409 379 398 q 426 384 466 367 q 506 351 535 327 q 564 303 581 271 q 598 238 598 192 q 598 143 578 104 q 558 65 522 38 q 486 11 435 -3 q 384 -18 322 -18 q 276 -18 234 -10 q 192 -2 158 12 q 124 26 98 45 q 72 63 57 86 q 53 93 53 103 q 53 111 57 121 q 61 130 67 137 q 73 145 81 150 q 88 155 96 155 q 104 155 113 149 q 121 144 129 139 q 145 128 165 118 q 186 108 210 101 q 234 93 262 88 q 290 83 321 83 q 353 83 379 89 q 406 95 426 107 q 446 119 457 137 q 468 155 468 180 q 468 212 452 232 q 436 253 410 267 q 383 282 350 292 q 316 302 281 313 q 268 317 250 324 q 231 330 213 338 q 195 345 178 353 q 162 361 152 369 q 62 413 62 519 q 62 566 83 603 q 103 640 139 665 q 174 691 223 704 q 271 718 328 718 q 403 718 462 696 q 521 674 564 631 q 570 624 573 616 q 575 609 575 600 q 575 592 573 583 q 570 574 565 567 q 560 560 551 555 q 542 550 530 550 q 517 550 500 565 q 486 574 469 584 q 451 593 430 601 q 409 608 385 613 q 361 617 335 617 q 309 617 283 612 q 258 607 237 596 q 216 585 203 568 q 190 550 190 526 z"},"}":{"x_min":0,"x_max":339,"ha":339,"o":"m 74 -26 q 97 -26 106 -8 q 115 10 115 44 l 115 178 q 115 211 125 234 q 134 257 147 272 q 161 287 174 295 q 187 302 194 305 q 193 305 193 306 q 192 307 191 308 q 183 311 170 320 q 157 328 145 343 q 132 357 124 380 q 115 402 115 433 l 115 567 q 115 602 106 620 q 97 638 74 638 l 47 638 q 38 638 31 641 q 23 645 19 651 q 14 657 12 664 q 9 672 9 680 q 9 696 19 709 q 28 722 47 722 l 120 722 q 141 722 159 713 q 178 705 193 689 q 207 674 215 653 q 224 632 224 608 l 224 457 q 224 431 226 412 q 229 393 237 379 q 244 366 258 358 q 271 351 292 349 q 303 349 310 345 q 318 341 323 335 q 328 329 331 321 q 333 313 333 305 q 333 296 331 289 q 328 281 323 275 q 318 269 310 265 q 303 261 292 261 q 271 259 258 252 q 244 244 237 231 q 229 218 226 198 q 224 179 224 154 l 224 4 q 224 -21 215 -42 q 207 -62 193 -78 q 178 -93 159 -102 q 141 -110 120 -110 l 47 -110 q 38 -110 31 -107 q 23 -103 19 -97 q 14 -91 12 -84 q 9 -76 9 -68 q 9 -61 12 -53 q 14 -45 19 -40 q 23 -34 31 -30 q 38 -26 47 -26 z"},"Z":{"x_min":0,"x_max":595,"ha":595,"o":"m 94 0 q 78 0 66 4 q 54 9 46 16 q 39 23 35 33 q 31 43 31 53 q 31 73 44 91 l 403 605 l 86 605 q 74 605 65 610 q 56 614 50 621 q 43 627 41 636 q 38 645 38 654 q 38 663 41 672 q 43 680 50 687 q 56 694 65 698 q 74 702 86 702 l 506 702 q 532 702 547 687 q 562 672 562 650 q 562 641 559 631 q 556 621 549 611 l 188 97 l 511 97 q 523 97 532 93 q 542 88 548 82 q 554 75 557 66 q 560 58 560 48 q 560 40 557 31 q 554 22 548 15 q 542 8 532 4 q 523 0 511 0 z"},"x":{"x_min":0,"x_max":525,"ha":525,"o":"m 188 250 l 64 407 q 53 421 53 436 q 53 447 58 456 q 63 466 71 473 q 80 480 90 485 q 100 489 111 489 q 123 489 134 483 q 146 478 154 465 l 266 316 l 381 467 q 389 479 399 484 q 410 489 420 489 q 431 489 440 485 q 450 481 457 474 q 464 468 469 459 q 474 450 474 440 q 474 426 463 413 l 338 252 l 473 81 q 484 67 484 52 q 484 42 479 32 q 475 22 466 15 q 458 8 448 4 q 437 0 426 0 q 415 0 403 5 q 392 11 383 23 l 259 187 l 135 21 q 126 10 116 5 q 106 0 96 0 q 85 0 76 4 q 66 8 58 15 q 50 22 46 31 q 41 40 41 50 q 41 64 51 77 z"},")":{"x_min":0,"x_max":311,"ha":311,"o":"m 143 -84 q 135 -102 123 -109 q 111 -117 98 -117 q 89 -117 81 -114 q 73 -111 67 -105 q 61 -99 57 -91 q 53 -83 53 -73 q 53 -64 57 -54 q 89 36 107 125 q 125 215 125 303 q 125 392 107 483 q 88 574 56 666 q 52 674 52 684 q 52 694 56 702 q 60 710 67 716 q 73 722 82 726 q 90 729 99 729 q 112 729 124 721 q 135 713 142 696 q 162 647 180 598 q 197 549 210 500 q 224 450 231 401 q 239 352 239 302 q 239 253 232 204 q 224 156 211 107 q 198 59 181 11 q 163 -37 143 -84 z"},"&":{"x_min":0,"x_max":772,"ha":772,"o":"m 612 417 q 616 433 628 440 q 639 447 653 447 q 663 447 672 444 q 681 441 688 435 q 696 429 700 421 q 705 412 705 401 q 705 394 703 387 q 699 363 694 334 q 688 305 680 273 q 672 242 659 210 q 647 178 629 151 l 694 82 q 702 73 705 64 q 708 55 708 46 q 708 36 704 26 q 699 16 692 8 q 684 0 674 -4 q 664 -9 653 -9 q 644 -9 634 -5 q 624 -1 616 8 l 550 80 q 508 36 452 12 q 396 -12 325 -12 q 269 -12 218 1 q 167 15 128 41 q 89 68 66 107 q 43 146 43 199 q 43 237 58 268 q 73 299 98 325 q 123 351 155 373 q 188 395 225 415 q 205 434 187 454 q 168 475 154 497 q 140 519 132 542 q 123 566 123 592 q 123 629 140 656 q 157 684 185 702 q 212 720 248 729 q 283 737 320 737 q 356 737 392 729 q 428 721 456 703 q 484 686 501 660 q 519 633 519 598 q 519 568 508 542 q 497 515 479 491 q 460 467 436 446 q 411 425 383 405 l 559 220 q 570 241 579 266 q 588 291 595 316 q 602 342 606 368 q 610 394 612 417 z m 293 349 q 275 339 253 323 q 230 307 211 288 q 191 269 178 248 q 165 227 165 207 q 165 174 178 149 q 191 124 213 106 q 235 89 264 80 q 292 71 324 71 q 374 71 412 90 q 451 110 487 143 z m 239 592 q 239 577 246 560 q 252 543 263 527 q 273 510 287 495 q 300 479 314 467 q 330 480 346 495 q 362 509 375 525 q 388 540 396 557 q 404 574 404 592 q 404 609 397 621 q 390 633 379 641 q 368 649 353 653 q 338 657 323 657 q 307 657 292 654 q 277 650 265 642 q 253 634 246 622 q 239 610 239 592 z"},"_":{"x_min":0,"x_max":500,"ha":500,"o":"m 29 -125 q 15 -125 7 -115 q 0 -105 0 -93 q 0 -82 7 -72 q 15 -62 29 -62 l 469 -62 q 484 -62 492 -72 q 500 -82 500 -93 q 500 -105 492 -115 q 484 -125 469 -125 l 29 -125 z"},"v":{"x_min":0,"x_max":522,"ha":522,"o":"m 360 82 q 352 61 343 45 q 333 30 322 20 q 310 10 296 5 q 281 0 263 0 q 244 0 230 5 q 216 10 204 20 q 193 30 184 45 q 174 61 166 82 l 30 420 q 26 429 26 439 q 26 450 31 459 q 36 469 44 475 q 52 482 62 485 q 73 489 83 489 q 100 489 113 479 q 126 470 134 450 l 263 112 l 387 450 q 395 470 408 479 q 422 489 438 489 q 449 489 459 485 q 469 482 477 475 q 485 469 490 459 q 495 450 495 439 q 495 435 494 430 q 494 425 492 420 z"},"O":{"x_min":0,"x_max":783,"ha":783,"o":"m 192 351 q 192 292 204 242 q 215 193 240 157 q 264 121 302 101 q 339 81 392 81 q 444 81 481 101 q 519 121 543 157 q 568 193 580 242 q 591 292 591 351 q 591 409 580 458 q 568 508 544 544 q 520 580 482 601 q 444 621 392 621 q 339 621 302 601 q 264 580 240 544 q 215 508 204 458 q 192 409 192 351 z m 54 351 q 54 433 76 500 q 98 568 141 616 q 184 665 247 691 q 310 718 392 718 q 474 718 537 691 q 600 665 643 616 q 686 568 707 500 q 729 433 729 351 q 729 269 707 201 q 686 134 643 85 q 600 37 537 10 q 474 -16 392 -16 q 310 -16 247 10 q 184 37 141 85 q 98 134 76 201 q 54 269 54 351 z"},"(":{"x_min":0,"x_max":311,"ha":311,"o":"m 171 -84 q 150 -37 133 11 q 115 60 102 108 q 89 156 82 205 q 74 253 74 302 q 74 352 82 401 q 90 451 103 500 q 116 549 134 598 q 151 647 171 696 q 178 713 190 721 q 202 729 215 729 q 224 729 232 726 q 241 723 247 717 q 253 711 257 703 q 261 694 261 685 q 261 675 258 666 q 225 575 207 483 q 188 392 188 303 q 188 216 206 126 q 224 37 257 -54 q 260 -63 260 -73 q 260 -83 256 -91 q 252 -99 246 -105 q 240 -111 232 -114 q 224 -117 215 -117 q 202 -117 190 -109 q 178 -102 171 -84 z"},"C":{"x_min":0,"x_max":694,"ha":694,"o":"m 50 348 q 50 433 75 502 q 100 570 144 618 q 188 667 248 692 q 309 718 380 718 q 424 718 472 707 q 519 697 569 675 q 585 668 593 655 q 600 643 600 629 q 600 620 597 611 q 594 603 588 595 q 582 588 573 584 q 564 580 554 580 q 545 580 534 584 q 456 612 395 612 q 344 612 305 594 q 266 577 239 543 q 213 510 199 461 q 186 413 186 350 q 186 293 198 246 q 209 198 234 164 q 259 130 296 111 q 333 92 382 92 q 417 92 457 102 q 497 111 544 132 q 550 135 556 136 q 562 138 568 138 q 578 138 586 134 q 594 130 600 123 q 606 116 609 107 q 612 99 612 89 q 612 74 604 59 q 595 44 574 35 q 466 -16 373 -16 q 301 -16 242 10 q 182 37 140 85 q 97 133 74 200 q 50 267 50 348 z"},"W":{"x_min":0,"x_max":1011,"ha":1011,"o":"m 504 582 l 354 73 q 350 56 340 42 q 331 29 317 19 q 303 10 287 5 q 271 0 255 0 q 240 0 225 4 q 211 9 199 18 q 187 26 177 40 q 168 54 164 73 l 20 628 q 18 636 18 644 q 18 657 23 668 q 29 678 38 686 q 47 693 59 697 q 71 701 83 701 q 101 701 115 691 q 130 681 135 659 l 265 115 l 419 632 q 423 650 432 663 q 440 676 452 685 q 463 694 477 698 q 491 703 505 703 q 519 703 533 698 q 546 694 558 685 q 570 676 579 663 q 587 650 591 632 l 752 116 l 880 658 q 885 681 900 692 q 916 702 934 702 q 945 702 956 698 q 967 694 976 687 q 984 680 990 670 q 995 660 995 647 q 995 640 993 632 l 847 73 q 843 55 833 41 q 823 27 810 17 q 797 8 782 3 q 767 -2 751 -2 q 735 -2 720 3 q 706 7 693 17 q 680 26 671 40 q 662 54 657 73 z"},"A":{"x_min":0,"x_max":706,"ha":706,"o":"m 674 77 q 677 67 677 57 q 677 44 672 33 q 666 23 657 16 q 647 8 636 4 q 624 0 612 0 q 594 0 578 10 q 562 21 557 42 l 506 172 l 193 172 l 143 42 q 137 20 121 10 q 106 0 88 0 q 77 0 65 4 q 53 8 44 16 q 35 23 30 33 q 24 43 24 56 q 24 61 25 66 q 25 71 28 77 l 233 589 q 245 624 257 645 q 270 667 283 679 q 297 692 314 697 q 330 702 350 702 q 371 702 387 697 q 404 691 418 679 q 432 666 444 644 q 456 623 468 589 z m 349 602 l 220 254 l 479 254 l 351 602 z"},"f":{"x_min":0,"x_max":353,"ha":353,"o":"m 223 416 l 223 56 q 223 42 218 31 q 213 21 205 14 q 197 7 186 3 q 176 0 165 0 q 154 0 144 3 q 134 7 126 14 q 118 21 113 31 q 108 42 108 56 l 108 416 l 56 416 q 35 416 25 427 q 15 438 15 453 q 15 466 25 478 q 35 489 56 489 l 108 489 l 108 532 q 108 582 117 616 q 127 650 145 672 q 164 693 190 702 q 217 712 251 712 q 272 712 293 709 q 314 706 334 701 q 348 697 354 687 q 360 676 360 664 q 360 657 358 650 q 356 643 352 638 q 348 632 341 629 q 335 626 327 626 q 314 626 305 628 q 295 629 286 629 q 265 629 253 624 q 240 618 234 604 q 227 590 225 565 q 223 541 223 502 l 223 489 l 292 489 q 312 489 323 478 q 333 466 333 453 q 333 438 323 427 q 312 416 292 416 z"},"Q":{"x_min":0,"x_max":783,"ha":783,"o":"m 54 351 q 54 433 76 500 q 98 568 141 616 q 184 665 247 691 q 310 718 392 718 q 474 718 537 692 q 600 666 642 618 q 684 570 706 503 q 727 436 727 354 q 727 312 719 275 q 711 238 697 206 q 683 173 663 145 q 643 116 618 93 l 707 93 q 719 93 728 89 q 736 85 742 79 q 748 72 751 64 q 754 56 754 47 q 754 39 751 30 q 748 22 742 15 q 736 9 728 5 q 719 0 707 0 q 695 0 674 -1 q 652 -2 627 -2 q 601 -3 574 -3 q 547 -4 525 -4 q 502 -4 487 -5 q 471 -5 468 -5 q 445 -10 427 -13 q 409 -16 392 -16 q 310 -16 247 10 q 184 37 141 85 q 98 134 76 201 q 54 269 54 351 z m 192 351 q 192 292 204 242 q 215 193 240 157 q 264 121 302 101 q 339 81 392 81 q 444 81 481 101 q 519 121 543 157 q 568 193 580 242 q 591 292 591 351 q 591 409 580 458 q 568 508 544 544 q 520 580 482 601 q 444 621 392 621 q 339 621 302 601 q 264 580 240 544 q 215 508 204 458 q 192 409 192 351 z"},"w":{"x_min":0,"x_max":851,"ha":851,"o":"m 428 394 l 314 71 q 307 50 298 36 q 289 22 278 14 q 268 6 256 3 q 244 0 231 0 q 208 0 188 14 q 169 29 157 63 l 34 417 q 32 423 32 427 q 32 432 32 435 q 32 447 36 457 q 41 467 48 474 q 55 481 64 485 q 73 489 83 489 q 99 489 113 479 q 126 468 133 448 l 241 106 l 355 430 q 366 460 384 475 q 401 489 430 489 q 459 489 477 475 q 495 461 505 430 l 612 110 l 720 448 q 727 468 740 479 q 753 489 770 489 q 793 489 806 475 q 819 460 819 438 q 819 428 816 417 l 689 64 q 676 29 658 15 q 639 0 615 0 q 603 0 592 3 q 581 6 572 14 q 562 22 554 36 q 545 50 538 71 z"},"-":{"x_min":0,"x_max":317,"ha":317,"o":"m 65 214 q 55 214 47 218 q 38 221 32 227 q 25 233 22 242 q 18 250 18 259 q 18 279 31 292 q 45 305 65 305 l 252 305 q 272 305 285 292 q 299 279 299 259 q 299 250 295 242 q 292 233 285 227 q 279 221 270 218 q 262 214 252 214 z"},"E":{"x_min":0,"x_max":617,"ha":617,"o":"m 151 0 q 138 0 127 5 q 115 10 106 19 q 98 27 92 39 q 87 50 87 63 l 87 639 q 87 651 92 663 q 96 674 105 683 q 113 692 125 697 q 136 702 149 702 l 504 702 q 517 702 526 698 q 535 694 541 687 q 547 680 550 672 q 553 663 553 654 q 553 645 550 636 q 547 627 541 621 q 535 614 526 610 q 517 605 504 605 l 214 605 l 214 408 l 486 408 q 498 408 507 404 q 517 399 523 393 q 529 386 532 377 q 535 369 535 359 q 535 351 531 342 q 528 333 522 326 q 516 319 507 315 q 498 311 486 311 l 214 311 l 214 97 l 515 97 q 527 97 536 93 q 545 88 552 82 q 558 75 561 66 q 563 58 563 48 q 563 40 561 31 q 558 22 552 15 q 545 8 536 4 q 527 0 515 0 z"},"s":{"x_min":0,"x_max":511,"ha":511,"o":"m 159 363 q 159 348 167 337 q 176 327 191 320 q 207 312 227 307 q 248 301 271 296 q 295 291 322 283 q 348 276 374 267 q 420 253 447 224 q 473 195 473 151 q 473 115 456 84 q 439 54 409 34 q 379 14 340 4 q 300 -6 254 -6 q 213 -6 177 1 q 140 8 112 20 q 84 31 68 47 q 51 62 51 80 q 51 94 62 103 q 73 112 89 112 q 99 112 116 106 q 132 100 155 91 q 177 82 205 76 q 232 69 264 69 q 283 69 302 73 q 320 78 335 87 q 349 96 358 110 q 367 124 367 143 q 367 160 351 176 q 336 191 308 199 q 275 208 244 215 q 212 222 184 230 q 155 237 131 247 q 107 257 90 272 q 72 287 62 308 q 52 330 52 360 q 52 390 68 416 q 83 443 111 460 q 139 478 176 486 q 214 495 258 495 q 304 495 338 488 q 372 481 395 470 q 417 459 429 445 q 440 431 440 417 q 440 403 429 396 q 418 388 403 388 q 397 388 392 389 q 386 391 381 394 q 361 405 333 412 q 304 418 263 418 q 239 418 220 415 q 201 412 187 405 q 174 397 166 385 q 159 372 159 363 z"},">":{"x_min":0,"x_max":642,"ha":642,"o":"m 546 290 q 564 282 573 270 q 581 257 581 244 q 581 230 572 217 q 563 205 545 197 l 123 20 q 114 17 107 17 q 99 17 92 20 q 85 23 80 29 q 75 35 72 42 q 69 49 69 57 q 69 67 75 76 q 80 84 93 90 l 465 244 l 92 406 q 80 411 74 420 q 69 429 69 438 q 69 446 72 453 q 74 460 79 466 q 84 471 91 475 q 98 478 106 478 q 114 478 122 475 z"},"l":{"x_min":0,"x_max":250,"ha":250,"o":"m 67 645 q 67 659 72 670 q 77 680 85 687 q 93 694 104 698 q 114 702 125 702 q 136 702 146 698 q 156 694 164 687 q 172 680 177 670 q 182 659 182 645 l 182 57 q 182 42 177 32 q 172 21 164 14 q 156 7 145 4 q 135 0 124 0 q 113 0 103 3 q 93 7 85 14 q 77 21 72 32 q 67 42 67 57 z"},"8":{"x_min":0,"x_max":601,"ha":601,"o":"m 187 353 q 157 357 132 370 q 107 383 89 403 q 71 423 61 450 q 51 477 51 507 q 51 554 70 590 q 89 625 123 649 q 157 673 202 685 q 248 697 300 697 q 353 697 398 685 q 444 673 478 649 q 511 625 531 590 q 550 554 550 507 q 550 476 540 450 q 530 425 512 405 q 494 386 469 373 q 444 359 414 353 l 414 352 q 485 335 524 292 q 562 250 562 183 q 562 136 543 99 q 524 62 489 36 q 455 11 406 -3 q 358 -16 300 -16 q 242 -16 194 -3 q 146 11 111 36 q 77 62 58 99 q 39 136 39 183 q 39 215 49 243 q 59 271 78 292 q 97 314 124 329 q 152 344 187 351 z m 173 503 q 173 476 182 456 q 192 436 209 423 q 226 410 249 403 q 272 396 300 396 q 329 396 352 403 q 375 410 392 423 q 409 436 419 456 q 428 476 428 503 q 428 532 417 553 q 406 573 388 586 q 371 599 347 605 q 324 611 300 611 q 276 611 253 605 q 230 599 213 586 q 195 573 184 553 q 173 532 173 503 z m 166 192 q 166 161 177 138 q 188 116 207 102 q 225 87 250 81 q 274 74 300 74 q 327 74 351 81 q 375 87 394 102 q 412 116 423 138 q 434 161 434 192 q 434 223 423 245 q 412 268 394 282 q 375 296 351 303 q 327 310 300 310 q 274 310 250 303 q 225 296 207 282 q 188 268 177 245 q 166 223 166 192 z"},"\\":{"x_min":0,"x_max":306,"ha":306,"o":"m -2 679 q -5 688 -5 695 q -5 704 -2 711 q 2 718 8 723 q 14 728 21 731 q 29 733 37 733 q 49 733 61 727 q 72 720 77 705 l 308 10 q 311 1 311 -5 q 311 -14 307 -21 q 303 -28 297 -33 q 292 -38 284 -41 q 276 -43 269 -43 q 257 -43 246 -37 q 235 -30 230 -15 z"},"e":{"x_min":0,"x_max":565,"ha":565,"o":"m 524 260 q 524 247 515 237 q 507 227 489 227 l 157 227 q 161 156 200 117 q 240 78 304 78 q 344 78 379 89 q 414 101 451 119 q 459 124 467 124 q 480 124 489 114 q 497 104 497 91 q 497 86 495 80 q 493 74 489 68 q 474 48 451 34 q 428 20 402 11 q 375 2 347 -2 q 319 -6 293 -6 q 240 -6 194 12 q 148 29 114 63 q 80 96 61 145 q 42 194 42 247 q 42 291 60 337 q 78 383 109 417 q 141 451 185 473 q 229 495 288 495 q 348 495 391 476 q 435 457 464 425 q 493 393 508 349 q 523 305 524 260 z m 422 286 q 420 309 411 335 q 402 362 385 381 q 368 399 344 409 q 320 418 289 418 q 260 418 237 408 q 214 398 197 378 q 180 359 170 333 q 160 307 158 286 z"},"b":{"x_min":0,"x_max":587,"ha":587,"o":"m 174 49 q 172 37 167 28 q 162 19 154 12 q 146 6 137 3 q 127 0 117 0 q 107 0 97 3 q 87 7 79 14 q 71 21 67 31 q 62 41 62 55 l 62 648 q 62 661 67 671 q 72 682 80 688 q 88 695 98 698 q 108 702 119 702 q 130 702 140 698 q 150 695 158 688 q 167 682 171 672 q 176 662 176 648 l 176 405 q 189 423 208 441 q 227 458 249 470 q 271 482 296 489 q 320 495 345 495 q 395 495 433 475 q 471 456 497 422 q 522 388 536 341 q 549 295 549 247 q 549 202 536 156 q 524 109 499 73 q 474 37 436 16 q 398 -6 348 -6 q 295 -6 250 19 q 206 44 174 90 q 174 89 174 83 q 174 77 174 70 q 174 62 174 56 q 174 50 174 49 z m 176 251 q 176 209 183 178 q 189 146 205 122 q 221 97 247 83 q 273 69 312 69 q 349 69 372 86 q 395 104 408 130 q 421 157 426 189 q 431 222 431 249 q 431 277 425 309 q 418 340 404 365 q 390 389 366 404 q 342 418 307 418 q 271 418 246 405 q 221 392 205 368 q 190 345 183 317 q 176 289 176 251 z"},"%":{"x_min":0,"x_max":1017,"ha":1017,"o":"m 263 632 q 240 632 224 622 q 208 612 198 594 q 188 576 184 552 q 179 527 179 499 q 179 471 184 446 q 188 422 198 404 q 208 386 224 376 q 240 366 263 366 q 286 366 302 376 q 318 386 328 404 q 338 422 342 446 q 347 471 347 499 q 347 527 342 552 q 338 576 328 594 q 318 612 302 622 q 286 632 263 632 z m 656 691 q 662 703 670 707 q 678 712 687 712 q 699 712 708 703 q 717 694 717 680 q 717 671 712 662 l 334 -16 q 329 -25 322 -29 q 314 -33 307 -33 q 294 -33 284 -24 q 273 -15 273 -1 q 273 2 274 6 q 275 9 277 13 z m 263 697 q 311 697 344 679 q 377 662 397 633 q 418 604 427 569 q 436 534 436 499 q 436 457 424 420 q 412 384 389 357 q 367 331 335 316 q 303 301 263 301 q 222 301 189 315 q 157 330 135 356 q 113 382 102 418 q 90 455 90 499 q 90 542 102 578 q 114 614 137 641 q 159 667 191 682 q 223 697 263 697 z m 754 381 q 802 381 835 363 q 868 345 888 317 q 909 288 918 253 q 927 217 927 183 q 927 140 915 104 q 903 67 880 41 q 858 14 826 -1 q 794 -16 754 -16 q 713 -16 681 -2 q 648 13 626 39 q 604 65 593 102 q 581 138 581 183 q 581 225 593 261 q 605 298 628 324 q 650 351 682 366 q 714 381 754 381 z m 754 315 q 731 315 715 305 q 699 295 689 278 q 679 260 675 235 q 670 211 670 183 q 670 154 675 130 q 679 105 689 88 q 699 70 715 60 q 731 50 754 50 q 777 50 793 60 q 809 70 819 88 q 829 105 833 130 q 837 154 837 183 q 837 211 833 235 q 829 260 819 278 q 809 295 793 305 q 777 315 754 315 z"},"m":{"x_min":0,"x_max":917,"ha":917,"o":"m 735 309 q 735 337 727 357 q 719 378 706 392 q 693 405 676 412 q 658 418 640 418 q 616 418 594 411 q 572 404 554 388 q 537 372 526 346 q 516 321 516 284 l 516 55 q 516 42 511 31 q 506 21 498 14 q 490 7 479 3 q 469 0 458 0 q 447 0 437 3 q 427 7 419 14 q 411 21 406 31 q 401 42 401 55 l 401 309 q 401 337 393 357 q 385 378 372 392 q 359 405 342 412 q 324 418 306 418 q 280 418 258 410 q 235 402 219 385 q 202 368 192 346 q 183 324 183 290 l 183 55 q 183 41 177 31 q 172 21 164 14 q 156 7 146 3 q 135 0 125 0 q 114 0 104 3 q 94 7 86 14 q 78 21 73 31 q 68 41 68 55 l 68 435 q 68 448 73 458 q 78 469 86 475 q 94 482 104 485 q 115 489 125 489 q 136 489 146 486 q 155 482 163 476 q 171 470 176 461 q 181 451 182 438 q 182 438 182 432 q 183 426 183 419 q 183 413 183 406 q 183 399 183 399 q 192 417 209 436 q 226 455 248 468 q 270 481 295 488 q 320 495 346 495 q 372 495 397 488 q 422 481 443 468 q 463 454 479 433 q 496 412 505 383 q 521 414 542 435 q 562 457 584 470 q 607 483 631 489 q 655 495 680 495 q 714 495 745 484 q 775 473 799 450 q 822 427 836 392 q 850 357 850 308 l 850 55 q 850 41 844 31 q 839 21 831 14 q 823 7 813 3 q 802 0 792 0 q 781 0 771 3 q 761 7 753 14 q 745 21 740 31 q 735 41 735 55 z"},"#":{"x_min":0,"x_max":601,"ha":601,"o":"m 342 217 l 226 217 l 196 15 q 194 -3 182 -11 q 170 -20 157 -20 q 143 -20 130 -10 q 118 0 118 19 q 118 23 118 25 l 146 217 l 87 217 q 69 217 59 229 q 50 241 50 255 q 50 270 59 281 q 69 293 87 293 l 157 293 l 175 419 l 115 419 q 97 419 87 431 q 78 443 78 457 q 78 471 87 483 q 97 495 115 495 l 186 495 l 212 680 q 215 698 227 706 q 239 715 253 715 q 268 715 280 705 q 292 695 292 677 q 292 675 292 673 q 292 671 292 669 l 266 495 l 381 495 l 408 680 q 411 698 423 706 q 435 715 449 715 q 463 715 476 705 q 488 695 488 677 q 488 675 488 673 q 488 671 487 669 l 461 495 l 513 495 q 531 495 541 483 q 550 471 550 457 q 550 442 541 431 q 532 419 513 419 l 451 419 l 433 293 l 485 293 q 503 293 513 281 q 522 269 522 255 q 522 241 513 229 q 504 217 485 217 l 422 217 l 392 15 q 390 -3 378 -11 q 367 -20 353 -20 q 338 -20 326 -10 q 314 0 314 18 q 314 23 314 25 z m 237 293 l 353 293 l 371 419 l 255 419 z"},",":{"x_min":0,"x_max":300,"ha":300,"o":"m 143 -113 l 44 -113 l 95 116 l 222 116 z"},"n":{"x_min":0,"x_max":583,"ha":583,"o":"m 67 435 q 67 448 72 458 q 77 469 85 475 q 93 482 103 485 q 114 489 125 489 q 135 489 145 486 q 155 482 163 476 q 171 469 176 460 q 181 450 182 437 l 182 399 q 190 417 207 436 q 224 455 246 468 q 268 481 293 488 q 319 495 345 495 q 379 495 410 484 q 441 473 465 450 q 489 428 503 392 q 517 357 517 308 l 517 55 q 517 42 512 31 q 507 21 499 14 q 491 7 480 3 q 470 0 459 0 q 448 0 438 3 q 428 7 420 14 q 412 21 407 31 q 402 42 402 55 l 402 309 q 402 337 395 357 q 387 378 374 392 q 360 405 343 412 q 325 418 306 418 q 280 418 257 410 q 235 402 218 385 q 201 368 191 346 q 182 324 182 290 l 182 55 q 182 42 177 31 q 172 21 164 14 q 156 7 145 3 q 135 0 124 0 q 113 0 103 3 q 93 7 85 14 q 77 21 72 31 q 67 42 67 55 z"},"h":{"x_min":0,"x_max":583,"ha":583,"o":"m 402 309 q 402 337 395 357 q 387 378 374 392 q 360 405 343 412 q 325 418 306 418 q 280 418 257 410 q 235 402 218 385 q 201 368 191 346 q 182 323 182 289 l 182 55 q 182 42 177 31 q 172 21 164 14 q 156 7 145 3 q 135 0 124 0 q 113 0 103 3 q 93 7 85 14 q 77 21 72 31 q 67 42 67 55 l 67 648 q 67 661 72 671 q 77 682 85 688 q 93 695 103 698 q 114 702 125 702 q 135 702 146 698 q 156 695 164 688 q 172 682 177 671 q 182 661 182 648 l 182 398 q 190 416 207 435 q 224 455 246 468 q 268 481 293 488 q 319 495 345 495 q 379 495 410 484 q 441 473 465 450 q 489 428 503 392 q 517 357 517 308 l 517 55 q 517 42 512 31 q 507 21 499 14 q 491 7 480 3 q 470 0 459 0 q 448 0 438 3 q 428 7 420 14 q 412 21 407 31 q 402 42 402 55 z"},"z":{"x_min":0,"x_max":472,"ha":472,"o":"m 395 86 q 416 86 427 73 q 438 59 438 43 q 438 27 427 13 q 416 0 395 0 l 86 0 q 74 0 65 4 q 55 7 49 14 q 42 20 38 29 q 35 37 35 46 q 35 55 38 64 q 41 74 48 83 l 301 402 l 86 402 q 76 402 68 406 q 60 410 54 416 q 49 422 46 430 q 43 438 43 446 q 43 462 54 475 q 65 489 86 489 l 384 489 q 412 489 426 476 q 439 463 439 445 q 439 437 436 427 q 432 417 425 407 l 172 86 z"},"B":{"x_min":0,"x_max":694,"ha":694,"o":"m 85 640 q 85 653 90 664 q 95 675 104 684 q 112 692 124 697 q 135 702 148 702 l 395 702 q 441 702 480 688 q 519 675 547 652 q 575 629 590 597 q 606 564 606 526 q 606 497 596 471 q 586 445 568 424 q 550 403 525 388 q 500 373 471 367 l 471 365 q 507 360 537 345 q 567 331 588 308 q 609 286 620 256 q 632 227 632 192 q 632 157 619 122 q 606 88 578 61 q 550 34 506 17 q 462 0 399 0 l 148 0 q 135 0 124 5 q 112 10 104 18 q 95 26 90 38 q 85 49 85 62 z m 211 86 l 334 86 q 375 86 406 92 q 437 98 458 111 q 479 125 490 148 q 501 171 501 206 q 501 243 487 265 q 473 288 447 301 q 421 313 385 318 q 350 323 307 323 l 211 323 z m 211 615 l 211 398 l 333 398 q 362 398 388 404 q 415 410 434 424 q 454 437 465 458 q 477 479 477 509 q 477 541 464 562 q 452 582 432 594 q 412 606 385 611 q 359 615 330 615 z"},"K":{"x_min":0,"x_max":667,"ha":667,"o":"m 218 62 q 218 46 213 35 q 207 23 198 16 q 188 8 177 4 q 166 0 153 0 q 141 0 130 4 q 118 8 109 15 q 100 23 95 35 q 89 46 89 62 l 89 640 q 89 656 95 667 q 101 679 110 687 q 119 694 130 698 q 142 702 154 702 q 166 702 177 698 q 189 694 198 687 q 207 679 213 667 q 218 656 218 640 l 218 393 l 473 674 q 482 688 495 695 q 508 701 522 701 q 534 701 545 697 q 556 693 564 686 q 573 678 578 668 q 583 658 583 646 q 583 630 572 614 l 346 381 l 597 96 q 604 87 607 78 q 609 69 609 61 q 609 48 604 37 q 598 26 589 18 q 580 10 568 5 q 556 0 543 0 q 529 0 516 7 q 502 14 493 29 l 218 352 z"},"R":{"x_min":0,"x_max":694,"ha":694,"o":"m 87 638 q 87 651 93 663 q 98 675 106 683 q 115 692 127 697 q 139 702 152 702 l 372 702 q 421 702 467 694 q 513 687 548 666 q 583 646 604 611 q 625 577 625 523 q 625 494 616 468 q 607 442 589 421 q 571 401 543 386 q 515 372 476 364 l 476 362 q 513 357 537 345 q 561 333 575 315 q 590 296 598 270 q 605 244 609 211 q 612 182 615 156 q 617 130 619 110 q 621 86 623 67 l 623 61 q 623 46 617 35 q 611 24 602 16 q 593 9 582 5 q 570 1 558 1 q 547 1 536 4 q 525 8 516 15 q 507 21 501 32 q 495 43 493 57 q 487 109 484 148 q 480 188 476 216 q 471 244 463 262 q 456 280 442 290 q 428 300 406 304 q 384 309 352 309 l 217 309 l 217 63 q 217 47 211 36 q 206 24 196 16 q 187 9 176 5 q 164 1 152 1 q 140 1 128 5 q 117 9 108 16 q 99 24 93 36 q 87 47 87 63 z m 321 397 q 352 397 382 401 q 413 404 438 415 q 463 426 479 448 q 494 469 494 506 q 494 543 480 564 q 467 585 445 596 q 424 606 397 609 q 371 612 346 612 l 217 612 l 217 397 z"},"T":{"x_min":0,"x_max":583,"ha":583,"o":"m 61 604 q 48 604 39 608 q 29 612 23 619 q 17 625 14 634 q 11 643 11 652 q 11 662 14 671 q 17 680 23 687 q 30 693 39 698 q 48 702 61 702 l 522 702 q 535 702 544 698 q 553 693 560 687 q 566 680 569 671 q 572 662 572 653 q 572 644 569 635 q 566 626 560 619 q 554 612 544 608 q 535 604 522 604 l 358 604 l 358 63 q 358 47 353 35 q 347 23 338 15 q 329 7 317 3 q 305 0 293 0 q 281 0 269 3 q 257 7 248 15 q 239 23 233 35 q 228 47 228 63 l 228 604 z"},"P":{"x_min":0,"x_max":650,"ha":650,"o":"m 217 284 l 217 62 q 217 47 211 35 q 206 23 196 15 q 187 7 175 3 q 163 0 151 0 q 139 0 127 3 q 115 7 106 15 q 97 23 91 35 q 85 47 85 62 l 85 637 q 85 650 91 662 q 96 674 105 683 q 114 692 126 697 q 138 702 151 702 l 349 702 q 404 702 453 691 q 503 680 540 655 q 578 630 600 590 q 622 551 622 494 q 622 436 599 396 q 576 355 537 331 q 499 306 447 295 q 395 284 337 284 z m 332 374 q 365 374 394 379 q 423 385 445 399 q 466 413 478 436 q 490 459 490 494 q 490 528 478 551 q 466 573 446 587 q 425 601 397 606 q 369 612 336 612 l 217 612 l 217 374 z"},"|":{"x_min":0,"x_max":222,"ha":222,"o":"m 70 685 q 70 695 73 702 q 77 710 83 715 q 89 720 96 723 q 104 726 111 726 q 119 726 126 723 q 134 720 140 715 q 146 710 149 702 q 152 695 152 685 l 152 -132 q 152 -143 149 -150 q 145 -158 139 -163 q 133 -168 126 -171 q 119 -174 111 -174 q 103 -174 96 -171 q 88 -168 83 -163 q 77 -158 73 -150 q 70 -143 70 -132 z"},"t":{"x_min":0,"x_max":363,"ha":363,"o":"m 110 489 l 120 620 q 121 631 126 639 q 131 648 139 654 q 146 660 156 663 q 165 666 174 666 q 192 666 206 655 q 219 644 219 621 l 219 489 l 294 489 q 314 489 324 476 q 334 464 334 449 q 334 435 324 422 q 314 410 294 410 l 219 410 l 219 207 q 219 172 220 148 q 222 125 227 110 q 232 95 243 88 q 254 82 273 82 q 278 82 284 82 q 290 83 296 83 q 302 84 307 84 q 312 85 315 85 q 333 85 344 73 q 354 61 354 45 q 354 30 344 20 q 335 10 320 4 q 304 -1 285 -4 q 266 -6 247 -6 q 212 -6 186 3 q 160 12 142 32 q 124 52 114 85 q 104 119 104 167 l 104 410 l 57 410 q 37 410 27 422 q 17 435 17 449 q 17 464 27 476 q 37 489 58 489 z"},"M":{"x_min":0,"x_max":978,"ha":978,"o":"m 490 159 l 688 607 q 699 635 710 653 q 722 671 734 682 q 747 693 762 698 q 777 702 796 702 q 814 702 831 696 q 848 690 861 678 q 874 665 882 645 q 889 625 889 597 l 889 57 q 889 42 885 32 q 880 21 872 14 q 864 7 854 4 q 844 0 834 0 q 824 0 814 4 q 805 7 797 14 q 789 21 784 32 q 780 42 780 57 l 780 576 l 563 80 q 559 66 551 56 q 542 45 532 38 q 522 31 510 28 q 499 24 487 24 q 465 24 445 37 q 424 51 414 80 l 198 573 l 198 57 q 198 42 194 32 q 189 21 181 14 q 173 7 164 4 q 154 0 144 0 q 133 0 124 4 q 114 7 106 14 q 99 21 94 32 q 89 42 89 57 l 89 597 q 89 625 97 645 q 104 665 118 678 q 131 690 148 696 q 165 702 184 702 q 203 702 218 698 q 233 693 246 682 q 259 671 271 652 q 282 634 293 606 l 487 159 z"},"g":{"x_min":0,"x_max":589,"ha":589,"o":"m 417 243 q 417 281 411 311 q 404 340 389 365 q 374 390 349 404 q 324 418 287 418 q 250 418 227 405 q 203 391 189 367 q 174 343 168 310 q 163 277 163 245 q 163 199 172 167 q 182 136 199 115 q 216 95 239 84 q 262 74 288 74 q 314 74 338 85 q 361 95 379 116 q 396 137 407 168 q 417 199 417 243 z m 418 92 q 405 69 386 51 q 368 34 346 22 q 324 11 300 6 q 275 0 251 0 q 199 0 159 18 q 120 36 93 68 q 66 100 53 143 q 40 187 40 241 q 40 290 53 337 q 66 385 92 420 q 118 455 156 475 q 195 495 245 495 q 272 495 297 490 q 322 485 344 473 q 367 462 386 443 q 405 424 420 403 l 420 445 q 422 456 427 464 q 432 472 439 478 q 446 483 455 486 q 464 489 473 489 q 483 489 493 485 q 502 482 510 475 q 518 468 523 458 q 527 448 527 435 l 527 0 q 527 -59 509 -100 q 490 -142 457 -167 q 424 -193 379 -204 q 334 -216 281 -216 q 207 -216 163 -199 q 119 -182 98 -146 q 91 -135 91 -125 q 91 -111 102 -100 q 112 -88 126 -88 q 133 -88 140 -91 q 154 -97 168 -104 q 182 -110 197 -115 q 213 -120 231 -123 q 250 -126 273 -126 q 306 -126 332 -120 q 359 -114 378 -101 q 397 -87 407 -65 q 418 -43 418 -10 z"},"j":{"x_min":0,"x_max":253,"ha":253,"o":"m 186 -6 q 186 -54 181 -86 q 175 -119 159 -140 q 144 -160 115 -169 q 86 -179 39 -179 q 17 -179 3 -172 q -11 -165 -11 -157 q -18 -154 -21 -148 q -25 -142 -25 -134 q -25 -123 -18 -113 q -10 -104 4 -104 q 26 -104 40 -101 q 53 -99 60 -90 q 67 -81 69 -64 q 71 -48 71 -20 l 71 432 q 71 446 76 457 q 81 467 89 474 q 97 481 108 485 q 118 489 129 489 q 140 489 150 485 q 160 481 168 474 q 176 467 181 457 q 186 446 186 432 z m 197 651 q 197 639 192 629 q 187 619 177 612 q 168 604 156 600 q 143 596 128 596 q 114 596 101 600 q 89 604 80 612 q 71 619 66 629 q 61 639 61 651 q 61 663 66 673 q 71 683 80 690 q 89 697 102 701 q 114 706 129 706 q 144 706 156 701 q 168 697 177 690 q 187 683 192 673 q 197 663 197 651 z"},"i":{"x_min":0,"x_max":250,"ha":250,"o":"m 192 651 q 192 627 173 612 q 154 596 125 596 q 110 596 97 600 q 85 604 76 612 q 67 619 62 629 q 57 639 57 651 q 57 663 62 673 q 67 683 76 690 q 85 697 98 701 q 110 706 125 706 q 140 706 152 701 q 165 697 173 690 q 182 683 187 673 q 192 663 192 651 z m 67 432 q 67 446 72 457 q 77 467 85 474 q 93 481 104 485 q 114 489 125 489 q 136 489 146 485 q 156 481 164 474 q 172 467 177 457 q 182 446 182 432 l 182 57 q 182 42 177 32 q 172 21 164 14 q 156 7 145 4 q 135 0 124 0 q 113 0 103 3 q 93 7 85 14 q 77 21 72 32 q 67 42 67 57 z"},"y":{"x_min":0,"x_max":517,"ha":517,"o":"m 207 5 l 27 418 q 25 424 24 429 q 23 434 23 439 q 23 450 28 459 q 33 468 41 475 q 49 481 59 485 q 69 489 80 489 q 95 489 108 481 q 121 473 128 454 l 261 118 l 395 455 q 401 473 414 481 q 426 489 440 489 q 451 489 460 485 q 470 481 478 475 q 485 468 490 459 q 495 450 495 438 q 495 434 494 429 q 493 424 491 419 l 256 -163 q 249 -182 235 -191 q 222 -199 206 -199 q 196 -199 186 -196 q 176 -192 168 -185 q 160 -178 155 -169 q 150 -160 150 -148 q 151 -144 151 -139 q 152 -134 154 -129 z"},"@":{"x_min":0,"x_max":800,"ha":800,"o":"m 274 304 q 274 286 280 270 q 285 253 295 241 q 305 229 319 222 q 333 215 351 215 q 369 215 387 220 q 406 226 422 236 q 438 246 450 260 q 463 274 469 293 l 503 407 q 504 412 505 417 q 506 422 506 427 q 506 443 499 457 q 491 470 479 479 q 468 489 453 494 q 439 499 425 499 q 403 499 383 490 q 363 481 347 467 q 330 452 317 432 q 303 413 294 391 q 285 369 280 347 q 274 325 274 304 z m 527 67 q 533 69 540 69 q 555 69 563 60 q 571 50 571 39 q 571 29 566 21 q 561 14 550 10 q 470 -13 395 -13 q 316 -13 248 12 q 180 37 131 85 q 81 132 53 201 q 24 270 24 357 q 24 418 41 471 q 58 523 87 565 q 117 607 156 640 q 196 672 242 694 q 288 715 337 727 q 387 738 436 738 q 478 738 519 729 q 560 721 596 704 q 632 688 662 662 q 693 637 715 602 q 737 568 749 524 q 762 481 762 428 q 762 388 752 352 q 742 315 726 283 q 709 252 687 226 q 665 201 639 183 q 614 165 588 155 q 562 145 537 145 q 524 145 511 147 q 499 150 488 156 q 477 163 468 172 q 460 181 456 194 q 432 168 399 155 q 365 142 330 142 q 296 142 269 154 q 241 167 222 189 q 203 210 193 239 q 183 268 183 300 q 183 333 191 366 q 199 399 213 430 q 228 461 248 488 q 269 515 295 535 q 321 555 352 567 q 383 578 418 578 q 454 578 485 562 q 516 547 533 515 l 537 528 q 542 542 552 550 q 563 557 576 556 q 589 556 599 549 q 609 541 609 526 q 609 521 608 514 l 539 285 q 534 268 531 254 q 528 240 528 230 q 528 218 533 212 q 539 205 552 205 q 577 205 601 223 q 625 241 645 271 q 664 301 676 340 q 688 379 688 421 q 688 486 667 534 q 646 582 612 613 q 577 645 532 660 q 486 675 437 675 q 397 675 356 665 q 316 656 279 637 q 241 618 208 591 q 176 563 152 527 q 128 491 114 447 q 100 403 100 352 q 100 276 125 219 q 149 162 191 124 q 232 86 287 68 q 342 49 403 49 q 434 49 465 53 q 496 58 527 67 z"},".":{"x_min":0,"x_max":300,"ha":300,"o":"m 83 62 q 83 74 88 85 q 93 96 102 105 q 110 114 123 119 q 135 124 150 124 q 165 124 177 119 q 189 114 198 105 q 207 96 212 85 q 216 74 216 62 q 216 49 212 38 q 207 26 198 18 q 189 9 177 4 q 165 -1 150 -1 q 135 -1 123 4 q 110 9 102 18 q 93 26 88 38 q 83 49 83 62 z"},"p":{"x_min":0,"x_max":589,"ha":589,"o":"m 176 400 q 189 420 208 439 q 227 458 249 470 q 271 482 296 489 q 321 495 348 495 q 398 495 436 474 q 474 453 499 417 q 524 381 536 335 q 549 288 549 241 q 549 194 535 148 q 522 102 496 67 q 470 33 432 14 q 395 -6 345 -6 q 320 -6 296 0 q 271 6 250 19 q 228 31 209 49 q 190 67 176 85 l 176 -133 q 176 -146 171 -156 q 167 -167 158 -173 q 150 -180 140 -183 q 130 -187 119 -187 q 108 -187 98 -183 q 88 -180 80 -173 q 72 -167 67 -156 q 62 -146 62 -133 l 62 435 q 62 448 67 458 q 72 468 80 475 q 87 482 97 485 q 107 489 118 489 q 128 489 138 486 q 148 482 156 476 q 164 470 169 461 q 175 452 176 439 z m 177 243 q 177 208 184 179 q 191 150 207 125 q 222 101 247 87 q 272 72 309 72 q 345 72 368 88 q 392 104 406 129 q 420 154 425 187 q 431 219 431 245 q 431 271 425 303 q 420 335 406 361 q 393 386 369 402 q 346 418 310 418 q 270 418 244 406 q 219 393 204 369 q 189 345 183 315 q 177 285 177 243 z"},"X":{"x_min":0,"x_max":645,"ha":645,"o":"m 142 30 q 131 14 117 6 q 103 -1 89 0 q 78 0 67 4 q 57 8 49 15 q 41 22 36 32 q 31 42 31 52 q 31 68 42 83 l 245 361 l 56 617 q 46 631 46 646 q 46 657 51 667 q 57 678 66 685 q 75 693 87 698 q 99 702 111 702 q 127 702 142 695 q 156 687 167 670 l 330 434 l 496 670 q 507 687 521 694 q 536 702 550 702 q 561 702 571 698 q 582 693 590 686 q 598 679 602 670 q 607 661 607 650 q 607 643 604 635 q 602 627 596 619 l 403 361 l 602 86 q 612 72 612 57 q 612 45 607 35 q 601 25 592 17 q 583 9 571 5 q 559 0 546 0 q 532 0 518 7 q 504 14 493 31 l 319 284 z"},"*":{"x_min":0,"x_max":506,"ha":506,"o":"m 307 566 l 411 570 q 425 570 434 561 q 444 551 444 537 q 444 524 434 514 q 425 505 411 505 l 306 508 l 360 421 q 362 417 363 413 q 364 408 364 404 q 364 393 355 383 q 346 373 331 373 q 323 373 315 377 q 307 381 303 389 l 252 479 l 202 389 q 198 381 190 377 q 182 373 173 373 q 159 373 149 383 q 140 393 140 404 q 140 414 145 421 l 199 508 l 95 505 q 82 505 72 514 q 62 524 62 537 q 62 551 72 561 q 81 570 95 570 l 198 566 l 144 653 q 139 661 139 670 q 139 683 149 693 q 158 703 172 703 q 181 703 189 698 q 196 694 202 686 l 252 593 l 303 686 q 308 694 316 698 q 324 702 333 703 q 347 703 356 693 q 365 683 365 670 q 365 661 361 653 z"},"Y":{"x_min":0,"x_max":650,"ha":650,"o":"m 391 286 l 391 63 q 391 47 385 35 q 380 23 371 15 q 361 7 349 3 q 337 0 325 0 q 313 0 301 3 q 290 7 280 15 q 271 23 265 35 q 260 47 260 63 l 260 284 l 48 621 q 44 627 42 634 q 41 640 41 646 q 41 658 46 668 q 52 678 62 686 q 72 693 84 697 q 96 701 109 701 q 125 701 140 693 q 155 685 163 667 l 332 376 l 333 376 l 503 669 q 511 687 525 694 q 539 701 554 701 q 565 701 576 698 q 587 694 595 688 q 604 682 609 673 q 614 664 614 653 q 614 648 612 642 q 611 635 607 629 z"},"c":{"x_min":0,"x_max":488,"ha":488,"o":"m 40 245 q 40 293 58 340 q 76 387 108 422 q 141 456 186 475 q 230 495 285 495 q 311 495 339 490 q 366 485 389 476 q 412 467 426 453 q 441 439 441 422 q 441 407 431 395 q 421 383 404 383 q 399 383 394 384 q 368 395 344 401 q 319 407 296 407 q 266 407 240 395 q 214 383 196 362 q 178 340 168 309 q 158 278 158 246 q 158 220 166 189 q 173 159 190 136 q 207 112 233 98 q 258 83 294 83 q 318 83 346 90 q 374 97 401 109 q 407 110 413 110 q 429 110 439 99 q 449 87 449 72 q 449 54 433 40 q 417 26 392 16 q 368 5 338 0 q 308 -6 280 -6 q 226 -6 181 13 q 137 33 105 67 q 74 101 57 148 q 40 195 40 245 z"},"!":{"x_min":0,"x_max":383,"ha":383,"o":"m 190 105 q 207 105 219 101 q 232 96 240 89 q 249 82 253 72 q 258 63 258 53 q 258 43 253 33 q 249 24 240 17 q 232 9 219 5 q 207 0 190 0 q 173 0 160 5 q 147 9 139 17 q 130 24 126 33 q 122 43 122 53 q 122 62 126 72 q 130 82 139 89 q 147 96 160 101 q 173 105 190 105 z m 123 666 q 123 667 123 668 q 123 669 123 671 q 123 684 128 693 q 134 703 143 709 q 152 716 164 719 q 176 722 188 722 q 201 722 212 719 q 224 716 232 709 q 241 703 247 693 q 252 683 252 669 l 252 666 l 236 240 q 236 226 231 215 q 227 205 220 198 q 213 190 204 187 q 196 183 187 183 q 178 183 170 187 q 161 190 154 198 q 147 205 143 215 q 139 226 138 240 z"},"/":{"x_min":0,"x_max":306,"ha":306,"o":"m 76 -42 q 70 -57 60 -63 q 49 -70 37 -70 q 29 -70 22 -68 q 14 -65 8 -60 q 2 -55 -1 -47 q -5 -40 -5 -31 q -5 -27 -4 -23 q -4 -20 -2 -16 l 229 678 q 234 694 245 701 q 256 708 269 708 q 276 708 284 705 q 292 702 297 697 q 303 692 307 685 q 311 677 311 668 q 311 664 310 660 q 310 656 308 652 z"},"[":{"x_min":0,"x_max":339,"ha":339,"o":"m 83 648 q 83 659 88 669 q 92 679 99 686 q 106 693 116 698 q 126 702 138 702 l 248 702 q 258 702 266 699 q 273 695 279 689 q 284 684 286 676 q 289 668 289 661 q 289 653 286 646 q 284 638 279 632 q 273 626 266 623 q 258 619 248 619 l 192 619 l 192 -24 l 248 -24 q 258 -24 266 -28 q 273 -31 279 -37 q 284 -43 286 -50 q 289 -58 289 -65 q 289 -81 279 -94 q 269 -107 248 -108 l 138 -108 q 126 -108 116 -104 q 106 -100 99 -92 q 92 -85 88 -75 q 83 -65 83 -54 z"},"6":{"x_min":0,"x_max":601,"ha":601,"o":"m 497 663 q 509 657 515 647 q 521 637 521 625 q 521 616 517 607 q 514 598 508 591 q 502 584 494 580 q 486 575 477 575 q 471 575 465 577 q 434 588 404 595 q 374 603 349 603 q 311 603 282 592 q 254 582 234 564 q 214 547 201 522 q 188 498 180 470 q 172 442 169 412 q 166 381 166 350 l 167 350 q 180 374 198 391 q 216 409 239 420 q 261 431 287 437 q 312 442 340 442 q 390 442 430 427 q 471 411 500 382 q 529 353 545 312 q 561 271 561 221 q 561 169 543 125 q 526 82 494 51 q 462 19 416 1 q 370 -16 312 -16 q 262 -16 222 -4 q 183 7 152 29 q 122 50 101 80 q 80 110 66 147 q 52 183 46 225 q 40 266 40 311 q 40 361 46 409 q 51 457 64 500 q 78 542 100 579 q 123 615 156 641 q 189 667 236 682 q 282 697 342 697 q 381 697 421 689 q 461 680 497 663 z m 308 74 q 339 74 364 84 q 388 94 405 113 q 422 131 430 157 q 439 184 439 216 q 439 247 432 273 q 425 300 410 320 q 395 340 372 351 q 349 363 317 363 q 283 363 257 352 q 231 341 214 321 q 196 301 187 274 q 178 246 178 213 q 178 183 188 158 q 197 132 215 114 q 232 95 256 84 q 279 74 308 74 z"},"r":{"x_min":0,"x_max":373,"ha":373,"o":"m 67 435 q 67 448 72 458 q 77 469 85 475 q 93 482 104 485 q 114 489 125 489 q 135 489 145 486 q 155 482 163 476 q 170 470 176 461 q 181 451 181 438 q 181 438 181 432 q 182 426 182 419 q 182 411 182 405 q 182 399 182 399 q 193 440 225 468 q 256 495 310 495 q 322 495 331 490 q 341 486 347 480 q 354 474 357 465 q 360 457 360 448 q 360 439 357 431 q 354 423 347 416 q 340 410 330 406 q 320 401 307 401 q 279 401 256 393 q 232 385 216 368 q 200 351 191 329 q 182 307 182 273 l 182 54 q 182 41 177 31 q 171 21 163 14 q 155 7 145 3 q 134 0 124 0 q 113 0 103 3 q 93 7 85 13 q 77 20 72 30 q 67 41 67 54 z"},"2":{"x_min":0,"x_max":601,"ha":601,"o":"m 286 600 q 268 600 250 597 q 232 593 215 588 q 197 583 181 576 q 165 569 152 562 q 145 559 139 558 q 132 557 127 557 q 107 557 95 570 q 83 583 83 601 q 83 614 90 627 q 98 640 117 649 q 136 660 159 669 q 183 678 207 684 q 231 691 255 695 q 280 699 302 699 q 350 699 391 687 q 432 676 462 653 q 492 631 509 598 q 526 566 526 523 q 526 488 512 450 q 498 412 473 374 q 449 336 417 298 q 385 260 349 225 q 313 189 275 157 q 238 125 203 97 l 485 97 q 497 97 506 93 q 515 88 521 82 q 526 75 529 66 q 532 57 532 48 q 532 39 529 30 q 526 21 521 15 q 515 8 506 4 q 497 0 485 0 l 118 0 q 83 0 67 17 q 50 34 50 57 q 50 75 59 92 q 68 110 85 125 q 91 130 101 139 q 111 148 124 159 q 136 170 150 183 q 165 195 178 208 q 192 221 205 233 q 217 245 227 255 q 263 289 294 324 q 326 359 349 393 q 373 426 386 457 q 400 487 400 512 q 400 534 390 550 q 381 567 365 578 q 350 589 329 594 q 309 600 286 600 z"},"{":{"x_min":0,"x_max":339,"ha":339,"o":"m 291 -26 q 300 -26 307 -30 q 314 -34 319 -40 q 324 -45 326 -53 q 329 -61 329 -68 q 329 -76 326 -84 q 324 -91 319 -97 q 314 -103 307 -107 q 300 -110 291 -110 l 218 -110 q 197 -110 178 -102 q 160 -93 146 -78 q 131 -62 123 -42 q 114 -21 114 4 l 114 154 q 114 179 112 198 q 109 218 101 231 q 94 244 80 252 q 67 259 45 261 q 35 261 27 265 q 20 269 14 275 q 9 281 7 289 q 4 296 4 305 q 4 313 7 321 q 9 329 14 335 q 20 341 27 345 q 35 349 45 349 q 67 351 80 358 q 94 366 101 379 q 109 393 112 412 q 114 431 114 457 l 114 608 q 114 632 123 653 q 131 674 146 689 q 160 705 178 713 q 197 722 218 722 l 291 722 q 310 722 319 709 q 329 696 329 680 q 329 672 326 664 q 324 657 319 651 q 314 645 307 641 q 300 638 291 638 l 264 638 q 241 638 232 620 q 223 602 223 567 l 223 433 q 223 402 215 381 q 206 359 194 344 q 183 330 170 321 q 157 312 148 308 q 146 307 144 305 q 151 302 164 295 q 177 287 190 272 q 204 257 213 234 q 223 211 223 178 l 223 44 q 223 10 232 -8 q 241 -26 264 -26 z"},"9":{"x_min":0,"x_max":601,"ha":601,"o":"m 104 18 q 91 23 86 33 q 80 44 80 56 q 80 65 83 74 q 86 83 92 91 q 98 98 106 103 q 114 107 124 107 q 126 107 129 107 q 132 106 135 105 q 169 93 200 87 q 232 80 259 80 q 295 80 322 91 q 349 101 368 119 q 388 138 401 163 q 414 189 421 219 q 429 249 432 283 q 435 316 435 351 q 435 352 434 352 q 433 352 433 352 q 420 328 402 311 q 384 293 362 282 q 339 271 313 265 q 288 259 260 259 q 210 259 170 275 q 129 291 100 319 q 71 348 56 389 q 40 430 40 480 q 40 532 57 576 q 74 619 106 651 q 139 682 185 700 q 230 717 288 717 q 363 717 415 691 q 467 666 500 621 q 532 576 546 517 q 561 457 561 390 q 561 338 555 288 q 549 238 536 193 q 523 147 500 109 q 478 71 445 43 q 411 15 365 -1 q 319 -17 258 -17 q 219 -17 179 -8 q 139 0 104 18 z m 292 628 q 261 628 237 618 q 212 608 196 589 q 179 570 170 544 q 162 518 162 485 q 162 455 169 428 q 176 401 191 381 q 206 361 229 350 q 251 338 283 338 q 317 338 343 349 q 369 360 386 380 q 404 400 413 427 q 422 455 422 488 q 422 518 413 543 q 403 569 386 588 q 369 606 345 617 q 321 628 292 628 z"}," ":{"x_min":0,"x_max":300,"ha":300,"o":""},"I":{"x_min":0,"x_max":311,"ha":311,"o":"m 90 640 q 90 656 96 668 q 102 680 111 688 q 120 695 132 699 q 144 703 156 703 q 168 703 180 699 q 191 695 201 688 q 210 680 216 668 q 221 656 221 640 l 221 63 q 221 48 216 36 q 210 24 201 17 q 191 9 179 5 q 167 1 155 1 q 143 1 131 5 q 120 9 111 17 q 102 24 96 36 q 90 48 90 63 z"},"H":{"x_min":0,"x_max":744,"ha":744,"o":"m 528 638 q 528 654 534 666 q 540 677 549 685 q 558 693 570 697 q 582 701 594 701 q 606 701 618 697 q 630 693 639 686 q 648 678 654 666 q 660 654 660 638 l 660 64 q 660 48 654 36 q 648 24 639 17 q 630 9 618 5 q 606 1 594 1 q 582 1 570 5 q 558 9 549 17 q 540 24 534 36 q 528 48 528 64 l 528 312 l 216 312 l 216 64 q 216 48 210 36 q 205 24 195 17 q 186 9 174 5 q 162 1 150 1 q 138 1 126 5 q 114 9 105 17 q 96 24 90 36 q 84 48 84 64 l 84 638 q 84 654 90 666 q 96 677 105 685 q 114 693 126 697 q 138 701 150 701 q 163 701 174 697 q 186 693 195 686 q 205 678 210 666 q 216 654 216 638 l 216 416 l 528 416 l 528 638 z"},"4":{"x_min":0,"x_max":601,"ha":601,"o":"m 276 628 q 296 664 322 678 q 349 692 381 692 q 399 692 415 687 q 431 682 443 672 q 456 661 463 645 q 470 628 470 604 l 470 233 l 529 233 q 541 233 549 229 q 557 226 563 219 q 568 213 571 205 q 574 197 574 188 q 574 180 571 172 q 568 164 563 157 q 557 151 549 147 q 541 143 529 143 l 470 143 l 470 55 q 470 41 464 30 q 459 20 450 12 q 442 5 431 2 q 420 -2 409 -2 q 398 -2 387 2 q 376 5 368 12 q 359 20 354 30 q 348 41 348 55 l 348 143 l 78 143 q 49 143 33 159 q 17 175 17 198 q 17 206 19 216 q 21 225 27 234 z m 127 233 l 348 233 l 348 588 z"},"~":{"x_min":0,"x_max":642,"ha":642,"o":"m 382 637 q 392 637 398 643 q 405 648 411 659 q 417 669 425 674 q 433 678 440 678 q 452 678 461 670 q 470 661 470 649 q 470 647 469 642 q 460 605 439 585 q 417 565 380 565 q 362 565 344 572 q 327 579 311 586 q 294 594 280 601 q 265 607 253 607 q 242 607 233 601 q 224 595 216 583 q 205 567 188 567 q 177 567 168 575 q 159 583 159 595 q 159 599 161 604 q 170 641 192 659 q 214 678 250 678 q 271 678 289 672 q 308 665 325 657 q 341 650 356 643 q 370 637 382 637 z"},"D":{"x_min":0,"x_max":744,"ha":744,"o":"m 144 0 q 130 0 118 5 q 106 10 98 19 q 89 27 84 39 q 79 50 79 63 l 79 638 q 79 651 84 663 q 89 675 98 683 q 106 692 118 697 q 130 702 144 702 l 317 702 q 412 702 482 678 q 553 655 599 610 q 646 564 669 499 q 692 433 692 348 q 692 264 667 199 q 642 134 594 90 q 547 45 478 23 q 409 0 322 0 z m 208 89 l 319 89 q 382 89 427 107 q 472 125 500 159 q 528 192 541 241 q 554 289 554 351 q 554 418 538 468 q 521 517 489 549 q 457 582 409 597 q 362 612 301 612 l 208 612 z"},"^":{"x_min":0,"x_max":642,"ha":642,"o":"m 320 598 l 167 290 q 161 277 152 271 q 143 266 133 266 q 125 266 118 269 q 111 271 105 277 q 100 282 96 288 q 93 295 93 303 q 93 307 94 311 q 94 315 97 320 l 271 662 q 279 677 292 686 q 306 694 321 694 q 335 694 349 686 q 362 678 370 662 l 543 320 q 546 315 547 311 q 547 307 547 303 q 547 295 544 289 q 541 282 535 277 q 530 272 522 270 q 515 267 508 267 q 498 267 489 272 q 479 277 472 290 z"},"0":{"x_min":0,"x_max":601,"ha":601,"o":"m 300 604 q 271 604 251 594 q 230 583 216 564 q 201 545 192 520 q 184 494 179 465 q 174 436 172 404 q 170 372 170 341 q 170 310 172 278 q 174 246 179 217 q 184 188 192 162 q 201 137 216 118 q 230 99 251 88 q 271 77 300 77 q 329 77 349 88 q 370 99 385 118 q 399 137 408 162 q 417 188 422 217 q 427 246 428 278 q 430 310 430 341 q 430 372 428 404 q 427 436 422 465 q 417 494 408 520 q 399 545 385 564 q 370 583 349 594 q 329 604 300 604 z m 300 697 q 350 697 389 684 q 427 670 456 646 q 485 623 505 589 q 524 556 537 516 q 549 477 554 432 q 560 388 560 341 q 560 294 554 249 q 549 205 537 165 q 524 125 505 92 q 485 59 456 35 q 427 11 389 -3 q 350 -16 300 -16 q 250 -16 212 -3 q 173 11 144 35 q 115 59 95 92 q 76 125 63 165 q 51 205 46 249 q 41 294 41 341 q 41 388 46 432 q 51 477 63 516 q 76 556 95 589 q 115 623 144 646 q 173 670 211 684 q 250 697 300 697 z"},"F":{"x_min":0,"x_max":572,"ha":572,"o":"m 82 638 q 82 651 87 663 q 92 675 101 684 q 110 692 121 697 q 133 702 146 702 l 482 702 q 495 702 504 698 q 513 694 519 687 q 525 680 528 672 q 531 663 531 654 q 531 645 528 636 q 525 627 519 621 q 513 614 504 610 q 495 605 482 605 l 213 605 l 213 411 l 469 411 q 481 411 490 407 q 499 403 505 396 q 511 389 514 380 q 517 372 517 363 q 517 354 514 345 q 511 336 505 329 q 499 322 490 318 q 481 314 469 314 l 213 314 l 213 63 q 213 47 208 35 q 202 23 193 16 q 184 8 172 4 q 160 0 147 0 q 135 0 124 4 q 112 8 103 16 q 93 23 88 35 q 82 47 82 63 z"},"`":{"x_min":0,"x_max":278,"ha":278,"o":"m 38 676 q 31 682 28 689 q 24 696 24 703 q 24 713 29 722 q 34 732 42 739 q 50 747 60 751 q 70 756 80 756 q 89 756 97 752 q 106 748 113 738 l 236 584 q 241 576 241 568 q 241 557 234 549 q 227 542 215 542 q 204 542 192 551 z"},"k":{"x_min":0,"x_max":511,"ha":511,"o":"m 186 260 l 186 57 q 186 43 180 32 q 175 21 167 14 q 159 7 149 4 q 138 0 127 0 q 117 0 107 4 q 97 7 89 14 q 81 21 76 32 q 71 43 71 57 l 71 645 q 71 659 76 669 q 81 680 89 687 q 97 694 107 698 q 118 702 129 702 q 140 702 150 698 q 160 694 168 687 q 176 680 181 669 q 186 659 186 645 l 186 292 l 378 468 q 389 478 399 483 q 408 489 419 489 q 429 489 438 485 q 448 481 455 475 q 462 469 467 460 q 471 452 471 443 q 471 435 469 428 q 466 421 459 415 l 297 276 l 481 74 q 487 68 489 61 q 490 54 490 48 q 490 38 486 29 q 481 21 473 14 q 465 7 455 4 q 445 0 435 0 q 423 0 413 6 q 403 13 393 24 z"},"u":{"x_min":0,"x_max":583,"ha":583,"o":"m 517 55 q 517 41 512 31 q 507 21 499 14 q 491 7 480 3 q 470 0 459 0 q 449 0 439 3 q 429 6 421 13 q 413 20 408 29 q 403 39 402 52 l 402 88 q 393 70 375 52 q 358 33 336 20 q 314 7 289 1 q 264 -6 239 -6 q 205 -6 173 5 q 142 16 118 39 q 95 62 81 97 q 67 132 67 179 l 67 434 q 67 447 72 458 q 77 468 85 475 q 93 482 103 485 q 113 489 124 489 q 135 489 145 485 q 156 482 164 475 q 172 468 177 458 q 182 447 182 434 l 182 177 q 182 151 189 130 q 197 110 210 96 q 224 83 241 76 q 259 69 278 69 q 302 69 324 77 q 346 84 363 100 q 379 115 390 135 q 400 156 402 187 l 402 434 q 402 448 407 458 q 412 468 420 475 q 428 482 438 485 q 449 489 459 489 q 470 489 480 485 q 491 482 499 475 q 507 468 512 458 q 517 448 517 434 z"},"]":{"x_min":0,"x_max":339,"ha":339,"o":"m 255 -54 q 255 -65 251 -75 q 247 -85 239 -92 q 232 -100 222 -104 q 212 -108 200 -108 l 91 -108 q 70 -107 60 -94 q 49 -81 49 -65 q 49 -58 52 -50 q 55 -43 60 -37 q 65 -31 73 -28 q 81 -24 91 -24 l 146 -24 l 146 619 l 91 619 q 81 619 73 623 q 65 626 60 632 q 55 638 52 646 q 49 653 49 661 q 49 668 52 676 q 55 684 60 689 q 65 695 73 699 q 81 702 91 702 l 200 702 q 212 702 222 698 q 232 693 239 686 q 247 679 251 669 q 255 659 255 648 z"},"U":{"x_min":0,"x_max":739,"ha":739,"o":"m 82 639 q 82 654 88 666 q 93 678 102 686 q 111 694 123 698 q 135 702 147 702 q 160 702 171 698 q 183 694 192 686 q 202 678 207 666 q 213 654 213 639 l 213 244 q 213 202 226 172 q 240 142 262 122 q 284 103 312 93 q 340 83 369 83 q 399 83 427 93 q 455 103 477 122 q 499 142 512 172 q 526 202 526 244 l 526 639 q 526 654 531 666 q 537 678 546 686 q 556 694 567 698 q 579 702 592 702 q 604 702 616 698 q 627 694 637 686 q 646 678 652 666 q 657 654 657 639 l 657 240 q 657 175 634 127 q 611 80 572 48 q 533 16 481 0 q 428 -15 369 -15 q 310 -15 258 0 q 206 16 167 48 q 127 80 105 127 q 82 175 82 240 z"},"o":{"x_min":0,"x_max":589,"ha":589,"o":"m 39 244 q 39 289 54 335 q 70 382 102 417 q 133 453 181 474 q 229 495 294 495 q 359 495 407 474 q 456 453 488 417 q 520 382 535 335 q 551 289 551 244 q 551 199 535 153 q 520 107 488 72 q 456 36 407 15 q 359 -6 294 -6 q 229 -6 181 15 q 133 36 102 72 q 70 107 54 153 q 39 199 39 244 z m 159 244 q 159 215 167 182 q 174 150 191 125 q 207 100 233 84 q 258 69 294 69 q 331 69 356 84 q 382 100 398 125 q 415 150 422 182 q 430 215 430 244 q 430 272 422 305 q 415 337 398 363 q 382 388 356 403 q 331 418 294 418 q 258 418 233 403 q 207 388 191 363 q 174 337 167 305 q 159 272 159 244 z"},"N":{"x_min":0,"x_max":755,"ha":755,"o":"m 80 624 q 80 643 85 657 q 91 671 101 681 q 110 691 123 697 q 135 702 149 702 q 168 702 186 692 q 205 683 220 664 l 561 172 l 561 646 q 561 660 566 671 q 571 681 579 688 q 587 695 597 698 q 608 702 619 702 q 629 702 640 699 q 650 695 658 688 q 666 681 671 671 q 676 660 676 646 l 676 78 q 676 59 670 45 q 664 30 654 21 q 645 11 632 5 q 619 0 604 0 q 586 0 568 9 q 550 18 534 38 l 195 527 l 195 55 q 195 42 190 31 q 185 21 177 14 q 168 7 158 3 q 147 0 137 0 q 126 0 116 3 q 105 7 97 14 q 89 21 84 31 q 80 41 80 55 z"},"+":{"x_min":0,"x_max":642,"ha":642,"o":"m 362 285 l 530 285 q 548 285 560 273 q 572 262 572 245 q 572 228 560 216 q 548 204 530 204 l 362 204 l 362 42 q 362 34 359 26 q 356 19 350 13 q 345 8 337 5 q 330 1 321 1 q 303 1 291 13 q 279 25 279 42 l 279 204 l 112 204 q 103 204 95 207 q 88 210 82 216 q 77 222 73 229 q 70 236 70 245 q 70 262 82 273 q 94 285 112 285 l 279 285 l 279 448 q 279 465 291 477 q 303 489 321 489 q 338 489 350 477 q 362 465 362 448 z"},"G":{"x_min":0,"x_max":750,"ha":750,"o":"m 626 370 q 652 370 663 356 q 673 342 673 316 l 673 86 q 673 55 657 37 q 641 20 616 16 q 594 9 567 3 q 540 -2 511 -7 q 483 -11 455 -14 q 428 -16 404 -16 q 325 -16 260 6 q 195 28 149 73 q 103 118 77 187 q 52 256 52 351 q 52 401 62 448 q 71 495 91 536 q 110 577 140 610 q 169 644 209 667 q 249 691 299 705 q 349 718 410 718 q 468 718 521 708 q 575 697 618 679 q 634 672 642 660 q 649 648 649 635 q 649 625 646 616 q 643 607 636 600 q 630 593 621 589 q 612 584 602 584 q 599 584 595 585 q 592 585 588 586 q 568 591 546 596 q 524 601 502 604 q 480 608 459 610 q 438 612 420 612 q 358 612 314 592 q 271 572 243 536 q 215 500 203 452 q 190 404 190 347 q 190 281 202 231 q 213 181 240 147 q 266 113 308 96 q 350 79 411 79 q 444 79 479 84 q 513 89 545 97 l 545 287 l 432 287 q 422 287 414 290 q 406 294 401 300 q 396 306 394 313 q 391 321 391 329 q 391 336 394 344 q 396 351 401 357 q 406 363 414 366 q 422 370 432 370 z"},"q":{"x_min":0,"x_max":589,"ha":589,"o":"m 415 400 q 415 401 415 407 q 415 413 415 420 q 415 428 415 434 q 415 440 415 441 q 418 465 435 477 q 452 489 472 489 q 482 489 492 485 q 502 482 510 475 q 518 468 522 458 q 527 448 527 435 l 527 -132 q 527 -145 522 -155 q 517 -166 509 -172 q 501 -179 490 -182 q 480 -186 469 -186 q 458 -186 448 -182 q 438 -179 430 -172 q 422 -166 417 -156 q 412 -146 412 -132 l 412 85 q 399 67 380 49 q 361 31 339 19 q 317 6 293 0 q 269 -6 244 -6 q 194 -6 156 14 q 119 33 93 67 q 67 102 53 148 q 40 194 40 241 q 40 288 52 335 q 65 381 90 417 q 115 453 153 474 q 191 495 241 495 q 268 495 293 489 q 318 482 341 470 q 364 458 383 439 q 401 420 415 400 z m 412 243 q 412 285 406 315 q 400 345 385 369 q 370 393 344 406 q 319 418 279 418 q 243 418 220 402 q 196 386 183 361 q 169 335 164 303 q 158 271 158 245 q 158 219 164 187 q 169 154 183 129 q 197 104 220 88 q 244 72 280 72 q 316 72 342 87 q 367 101 382 125 q 398 150 405 179 q 412 208 412 243 z"},"d":{"x_min":0,"x_max":589,"ha":589,"o":"m 529 55 q 529 41 524 31 q 519 21 511 14 q 503 7 493 3 q 483 0 473 0 q 462 0 452 3 q 442 6 434 13 q 426 20 420 29 q 415 39 414 52 l 414 57 q 414 62 414 69 q 414 75 413 80 l 413 85 q 381 40 338 17 q 295 -7 243 -7 q 192 -7 155 15 q 117 36 92 72 q 67 108 54 155 q 42 201 42 247 q 42 295 55 341 q 68 388 94 422 q 119 456 157 475 q 195 495 245 495 q 270 495 295 489 q 320 482 342 470 q 364 458 383 441 q 401 423 414 405 l 414 648 q 414 662 419 672 q 424 682 432 688 q 440 695 450 698 q 460 702 471 702 q 482 702 492 698 q 503 695 511 688 q 519 682 524 671 q 529 661 529 648 z m 284 418 q 248 418 224 404 q 201 389 186 365 q 172 340 166 309 q 160 277 160 249 q 160 221 165 188 q 169 156 183 129 q 196 103 219 85 q 242 68 278 68 q 317 68 343 82 q 369 96 385 121 q 400 146 406 177 q 413 209 413 251 q 413 289 406 317 q 399 345 384 368 q 369 392 344 405 q 320 418 284 418 z"},"1":{"x_min":0,"x_max":601,"ha":601,"o":"m 166 492 q 154 485 143 485 q 133 485 125 489 q 117 493 111 499 q 105 505 102 514 q 98 522 98 531 q 98 541 103 551 q 108 561 120 567 l 296 673 q 304 678 312 680 q 321 682 330 682 q 341 682 352 678 q 363 674 372 666 q 380 658 385 646 q 391 635 391 619 l 391 62 q 391 46 385 34 q 379 23 370 15 q 361 8 350 4 q 338 0 327 0 q 315 0 303 4 q 292 8 283 15 q 274 23 269 34 q 263 46 263 62 l 263 553 l 166 492 z"},"5":{"x_min":0,"x_max":601,"ha":601,"o":"m 84 624 q 84 654 100 668 q 116 682 148 682 l 481 682 q 492 682 500 678 q 508 674 513 667 q 519 661 521 653 q 524 645 524 636 q 524 627 521 619 q 519 611 513 604 q 508 598 500 594 q 492 590 481 590 l 189 590 l 186 387 q 218 419 257 436 q 297 452 344 452 q 392 452 430 435 q 469 417 497 386 q 525 355 540 313 q 555 271 555 220 q 555 167 536 124 q 516 81 482 50 q 448 20 401 3 q 354 -14 299 -14 q 264 -14 232 -8 q 199 -1 171 11 q 144 24 122 44 q 100 63 86 90 q 79 98 76 106 q 74 114 74 122 q 74 139 85 151 q 97 164 113 164 q 121 164 129 160 q 137 157 145 149 q 166 113 204 95 q 243 77 289 77 q 323 77 348 88 q 374 99 391 119 q 408 139 417 166 q 426 193 426 226 q 426 257 418 283 q 410 310 394 329 q 379 348 357 358 q 335 369 307 369 q 284 369 266 363 q 248 357 233 349 q 219 340 209 329 q 199 319 193 309 q 186 292 169 282 q 153 273 135 273 q 125 273 116 276 q 107 279 100 286 q 93 292 88 302 q 84 312 84 327 z"}}}
